<svg xmlns="http://www.w3.org/2000/svg" xml:space="preserve" width="3781.9607" height="1878.692" x="0px" y="0px" viewBox="0 0 3781.9607 1878.692"><path d="M892.564 1878.214c-170.89-8.661-332.696-62.131-474.547-156.818-114.445-76.393-211.624-177.992-282.646-295.5-110.014-182.024-154.631-394.017-127.75-607 17.899-141.82 69.484-279.955 149.387-400.032C258.37 266.54 402.202 146.73 569.869 74.96c93.57-40.053 189.656-63.73 294.695-72.614 41.635-3.522 114.212-3.017 160 1.112 171.561 15.472 336.96 78.95 475 182.302 60.14 45.027 118.083 100.376 165.026 157.637 119.1 145.28 192.523 324.694 208.919 510.5 4.91 55.643 4.91 115.317 0 171-10.076 114.29-41.605 226.385-92.961 330.5-58.418 118.432-141.086 222.97-243.985 308.534-106.237 88.34-234.609 153.479-368.5 186.988-58.82 14.721-115.38 23.265-178.5 26.963-15.175.889-81.534 1.117-97 .333zm-442.63-543.77c14.45-3.847 27.4-14.34 34.02-27.569 5.672-11.332 6.334-17.008 5.904-50.672-.362-28.458-.4-28.889-3.04-35.567-6.061-15.334-18.195-27.338-33.254-32.898-5.654-2.088-8.072-2.247-42-2.779-33.778-.528-36.216-.688-39.5-2.59-6.506-3.77-7.5-7.486-7.5-28.053v-18.08l3-4.814c5.192-8.333 6.014-8.526 36.267-8.526 29.25 0 30.601.238 35.966 6.348 2.992 3.409 4.287 6.784 9.36 24.402l1.224 4.25h38.683v-14.95c0-8.224-.496-17.336-1.102-20.25-3.58-17.22-17.802-32.564-35.278-38.06-6.884-2.166-8.464-2.24-47.62-2.24-39.027 0-40.756.081-47.541 2.216-17.486 5.501-31.345 19.902-36.006 37.415-2.112 7.936-2.053 57.144.078 65.327 4.445 17.065 19.038 31.914 36.97 37.618 2.77.882 15.117 1.45 40.178 1.848 34.504.55 36.308.671 38.939 2.638 6.74 5.037 6.85 5.488 7.205 29.173.272 18.174.062 22.277-1.322 25.901-1.936 5.071-6.102 8.881-11.282 10.32-4.585 1.273-48.22 1.344-53.641.087-8.955-2.077-12.333-6.97-16.568-24.004l-3.242-13.038h-40.037l.525 17.75c.42 14.215.942 19.058 2.62 24.322 5.276 16.553 19.086 29.828 35.815 34.427 7.247 1.992 84.722 2.032 92.178.048zm137.13-45.048v-46.5h38.79c42.042 0 44.947-.295 56.21-5.7 6.757-3.243 19.44-15.729 23.238-22.875 5.356-10.079 5.763-13.757 5.75-51.885-.012-36.898-.316-40.007-4.844-49.54-5.224-11-17.436-22.385-28.828-26.875-9.443-3.722-19.151-4.207-78.316-3.91l-56.5.285-.254 126.75-.253 126.75H587.064zm.239-126.75.261-39.25 32.5.01c30.998.01 32.685.107 36.499 2.097 2.877 1.502 4.77 3.565 6.75 7.354l2.751 5.267v24.418c0 26.095-.449 28.992-5.298 34.185-4.762 5.101-5.296 5.169-40.664 5.169h-33.061l.262-39.25zm298.83 171.655c13.815-4.058 27.858-15.334 33.807-27.145 6.174-12.258 6.093-10.965 6.11-97.96.01-54.014-.337-80.887-1.09-84.5-2.798-13.412-14.61-29.187-26.635-35.566-12.404-6.581-13.693-6.734-56.76-6.734-37.48 0-39.275.086-46.042 2.216-18.88 5.94-34.259 23.237-37.418 42.085-.784 4.673-1.034 30.74-.828 86.199.294 79.136.306 79.53 2.516 86 5.653 16.546 20.893 30.985 37.384 35.42 8.317 2.236 81.331 2.224 88.956-.015zm-69.069-39.416c-1.925-.34-4.494-1.158-5.71-1.817-2.871-1.558-6.714-6.777-8.152-11.071-1.552-4.636-1.599-139.9-.05-145.478.592-2.132 2.727-5.621 4.744-7.754 4.899-5.18 8.256-5.678 36.668-5.446 19.247.157 23.511.458 26.131 1.846 4.182 2.216 8.073 6.99 9.396 11.526.742 2.544.985 25.998.777 74.87l-.304 71.164-3.014 4.288c-5.662 8.055-6.684 8.312-33.455 8.407-12.942.046-25.106-.195-27.03-.535zm209-8.509v-49.52l21.162.27 21.163.27 20.262 49 20.262 49 24.038.268 24.04.267-3.104-7.267c-21.13-49.487-40.823-96.186-40.823-96.803 0-.426 2.534-2.204 5.631-3.952 11.558-6.523 21.48-18.515 25.534-30.863 1.979-6.026 2.223-9.243 2.602-34.3.485-32.068-.258-39.027-5.305-49.721-4.128-8.749-15.105-20.402-22.962-24.376-12.5-6.324-10.294-6.137-76.75-6.518l-60.75-.348v254.113h45zm0-126.786v-36.385l31.25.144c34.359.16 34.78.228 40.058 6.501 3.949 4.693 4.918 11.864 4.513 33.39-.328 17.435-.558 19.53-2.568 23.322-1.214 2.291-3.68 5.216-5.48 6.5-3.244 2.314-3.556 2.337-35.523 2.623l-32.25.29zm258.246 70.056.254-106.25h32.294c31.464 0 32.306-.051 32.784-2 .27-1.1.363-10.325.206-20.5l-.284-18.5-87.27-.256-87.27-.255.27 20.715.27 20.716 31.75-.023 31.75-.023v212.626h44.991l.255-106.25zm228.06 104.758c17.066-4.445 31.835-18.293 37.87-35.508 2.18-6.22 2.28-7.836 2.301-37.5.022-29.26-.101-31.395-2.194-38.046-4.083-12.98-15.922-26.69-28.59-33.11-9.114-4.618-15.568-5.306-50.193-5.349-29.27-.036-32.357-.201-36.191-1.942-6.917-3.14-8.566-7.6-9.105-24.627-.505-15.968.593-23.07 4.422-28.602 4.529-6.544 5.981-6.824 35.46-6.824 24.684 0 26.548.128 30.635 2.107 6.029 2.918 8.55 7.174 12.427 20.98l3.347 11.913H1552.316l-.506-17.25c-.543-18.515-1.725-23.92-7.321-33.47-6.089-10.388-19.74-20.243-32.425-23.408-7.957-1.985-81.121-1.972-89 .016-8.447 2.132-16.778 6.764-23.334 12.973-7.143 6.765-11.562 13.386-14.778 22.14-2.313 6.295-2.388 7.41-2.388 35.5 0 27.685.105 29.302 2.306 35.672 4.199 12.15 15.387 25.311 26.194 30.813 10.367 5.277 11.261 5.383 50.18 5.966 41.572.622 40.1.322 44.57 9.069 2.105 4.12 2.25 5.655 2.25 23.825 0 21.578-.728 25.664-5.475 30.697-4.79 5.08-8.571 5.62-36.86 5.27-23.758-.295-25.397-.437-29.314-2.532-5.739-3.068-7.893-7.103-11.722-21.948l-3.31-12.833-19.767-.271-19.768-.272.433 18.772c.4 17.335.635 19.289 3.067 25.532 6.193 15.892 19.328 27.982 34.98 32.198 7.872 2.12 83.938 2.16 92.043.05zm-459.306-496.747c63.525-101.056 115.725-183.739 116-183.738.275 0 19.31 29.807 42.298 66.238l41.798 66.239-36.298.3-36.298.3-36.486 57.91c-20.068 31.85-36.618 58.303-36.779 58.786-.166.499 46.83.91 108.986.956 60.104.043 109.758.117 110.344.163.586.047 17.686 26.406 38 58.576l36.935 58.491 70.333.01c40.112 0 70.19-.37 70-.871-.71-1.875-372.361-590.098-372.833-590.093-.275.003-67.928 106.648-150.34 236.99l-149.84 236.982h-163.96c-136.418 0-163.825-.224-163.16-1.334.44-.734 17.404-27.282 37.698-58.995l36.897-57.662 102.057-.254 102.057-.255 36.732-58c20.202-31.9 36.76-58.338 36.796-58.752.035-.414-102.173-.639-227.129-.5l-227.192.252-36.764 58c-20.22 31.9-36.783 58.334-36.808 58.741-.024.408 24.269.858 53.984 1l54.028.259-69.787 110.5a935362.43 935362.43 0 0 0-74.045 117.252l-4.257 6.751 305.767-.251 305.766-.252zm-19.814-344.554c20.248-32.062 36.814-58.5 36.814-58.752 0-.253-108.524-.346-241.165-.207l-241.165.252-35.376 56c-19.457 30.8-36.045 57.238-36.862 58.752l-1.485 2.752 241.212-.252 241.212-.252zm1662.126 1035.043c-73.77-127.463-135.482-234.48-137.14-237.816-13.092-26.343-20.098-69.962-17.256-107.434 2.052-27.06 7.531-52.246 15.337-70.5 1.882-4.4 19.858-36.125 39.947-70.5 38.043-65.095 245.746-421.887 397.31-682.5 48.3-83.05 90.319-154.343 93.376-158.428 30.096-40.214 75.003-70.958 116.99-80.092 18.65-4.057 20.962-4.086 304.322-3.778l273.699.298-182.37 315-182.371 315-141.103.253-141.103.254 1.427-2.254c2.912-4.595 220.896-379.3 221.358-380.503.378-.987-7.922-1.25-39.473-1.25h-39.952l-72.024 123.75-244.21 419.584c-94.703 162.71-172.049 296.17-171.881 296.582 1.425 3.49 39.43 67.816 39.896 67.528.335-.207 59.965-102.535 132.51-227.396l131.9-227.02 140.856-.014c122.726-.012 140.786.173 140.3 1.438-1.213 3.16-544.94 941.548-545.558 941.548-.364 0-61.018-104.287-134.787-231.75zm-415.493-716.819c-9.167-14.798-138.26-239.023-138.03-239.749.157-.5 47.599-82.196 105.424-181.546 66.822-114.807 107.52-183.734 111.675-189.136 8.965-11.655 26.584-29.587 38.612-39.3 13.763-11.113 25.69-18.727 41-26.176 20.84-10.138 38.79-15.293 61-17.517 7.797-.781 90.1-1.016 282.633-.805l271.633.298-71.335 122.5-71.335 122.5-183.106.5-183.106.5-19.796 34-19.796 34 182.354.253c100.295.139 182.354.5 182.354.801 0 .302-32.287 56.096-71.75 123.987l-71.75 123.438-182.855.26-182.854.261-37.955 65c-20.875 35.75-38.546 66.094-39.268 67.431l-1.314 2.432zm-290.082-501.152-111.514-192.779 111.888-.254c61.54-.14 162.201-.14 223.694 0l111.805.254-85.842 147.5c-47.213 81.125-97.694 167.876-112.18 192.78l-26.338 45.278z" style="fill:#000"/></svg>