<svg xmlns="http://www.w3.org/2000/svg" width="72" height="80" fill="none" viewBox="0 0 72 80"><path fill="#fff" d="M40.505 3.37C58.255 5.655 72 21.22 72 40.075a37.5 37.5 0 0 1-4.97 18.745h-9.515A29.5 29.5 0 0 0 62 51.355a29.5 29.5 0 0 0 2.21-11.28c0-3.925-.745-7.715-2.21-11.275a29 29 0 0 0-6.045-9.22 28 28 0 0 0-15.45-8.115ZM13.04 68.555v-11.64a30 30 0 0 1-3.045-5.56 29.5 29.5 0 0 1-2.205-11.28c0-3.925.74-7.715 2.205-11.275a28.2 28.2 0 0 1 3.045-5.56V11.58A37.3 37.3 0 0 0 0 40.08a37.25 37.25 0 0 0 13.04 28.47ZM35.125 0h-20.64l3.95 8.285V71.81L14.54 80h46.775l4.265-15.655H35.13V0Z"/></svg>